Title                            : A Lonely Place to Die
Year                             : 2011
Genre                            : Adventure | Crime | Thriller
iMDB URL                         : http://www.imdb.com/title/tt1422136/

Complete name                    : A.Lonely.Place.to.Die.2011.BRRIP.720P.H264-ZEKTORM.mp4
Format                           : MPEG-4
Format profile                   : Base Media
Codec ID                         : isom
File size                        : 2.90 GiB
Duration                         : 1h 39mn
Overall bit rate                 : 4187 Kbps
Subtitles                        : English (Format: srt)

Video
ID                               : 1
Format                           : AVC
Format/Info                      : Advanced Video Codec
Format profile                   : High@L4.1
Format settings, CABAC           : Yes
Format settings, ReFrames        : 5 frames
Codec ID                         : avc1
Codec ID/Info                    : Advanced Video Coding
Duration                         : 1h 39mn
Bit rate mode                    : Variable
Bit rate                         : 3737 Kbps
Width                            : 1280 pixels
Height                           : 544 pixels
Display aspect ratio             : 2.35
Frame rate mode                  : Constant
Frame rate                       : 23.976 fps
Resolution                       : 24 bits
Colorimetry                      : 4:2:0
Scan type                        : Progressive
Bits/(Pixel*Frame)               : 0.224
Stream size                      : 2.59 GiB (89%)
Title                            : Video
Writing library                  : x264

Audio
ID                               : 2
Format                           : AAC
Format/Info                      : Advanced Audio Codec
Format version                   : Version 4
Format profile                   : LC
Format settings, SBR             : No
Codec ID                         : 40
Duration                         : 1h 39mn
Bit rate mode                    : Variable
Bit rate                         : 446 Kbps
Maximum bit rate                 : 673 Kbps
Channel(s)                       : 6 channels
Channel positions                : Front: L C R, Rear: L R, LFE
Sampling rate                    : 48.0 KHz
Resolution                       : 16 bits
Stream size                      : 316 MiB (11%)
Language                         : English


Screenshots:

[img]http://img812.imageshack.us/img812/7049/snapalptd1.png[/img]

[img]http://img195.imageshack.us/img195/5589/snapalptd2.png[/img]

[img]http://img685.imageshack.us/img685/493/snapalptd3.png[/img]
